<svg width="414" height="140" viewBox="0 0 414 140" fill="none" xmlns="http://www.w3.org/2000/svg">
<g clip-path="url(#clip0)">
<g clip-path="url(#clip1)">
<path d="M320.646 133.735L310.667 116.443L300.689 133.735L290.71 151.155H310.667H330.753L320.646 133.735Z" stroke="white" stroke-opacity="0.2" stroke-width="3" stroke-miterlimit="10" stroke-linecap="round" stroke-linejoin="round"/>
<path d="M53.7616 35L58.0001 19L42.0001 23.3444L26.0001 27.5828L37.7617 39.3444L49.5232 51L53.7616 35Z" stroke="white" stroke-opacity="0.2" stroke-width="3" stroke-miterlimit="10" stroke-linecap="round" stroke-linejoin="round"/>
<path d="M129 142C129 148.655 123.656 154 117 154C110.345 154 105 148.655 105 142C105 135.345 110.345 130 117 130C123.656 130.101 129 135.445 129 142Z" stroke="white" stroke-opacity="0.4" stroke-width="5" stroke-miterlimit="10" stroke-linecap="round" stroke-linejoin="round"/>
<path d="M416.531 120.787C409.218 125.009 399.952 122.52 395.789 115.31C391.626 108.099 394.104 98.83 401.416 94.6083" stroke="white" stroke-opacity="0.25" stroke-width="3" stroke-miterlimit="10" stroke-linecap="round" stroke-linejoin="round"/>
<path fill-rule="evenodd" clip-rule="evenodd" d="M343.892 -6.07861C343.892 -6.90704 343.221 -7.57861 342.392 -7.57861C341.564 -7.57861 340.892 -6.90704 340.892 -6.07861C340.892 -4.05395 341.621 -2.53638 342.711 -1.37086C343.744 -0.266041 345.078 0.490507 346.2 1.10174C346.326 1.17047 346.45 1.23728 346.57 1.30249C347.604 1.86287 348.421 2.30584 349.039 2.84865C349.647 3.38219 349.943 3.91299 349.943 4.67651C349.943 5.44005 349.647 5.97085 349.039 6.5044C348.421 7.04721 347.604 7.49018 346.57 8.05056L346.57 8.05073C346.45 8.11588 346.326 8.18263 346.2 8.25131C345.078 8.86254 343.744 9.61909 342.711 10.7239C341.621 11.8894 340.892 13.407 340.892 15.4317C340.892 15.4483 340.892 15.4649 340.893 15.4815C340.892 15.498 340.892 15.5146 340.892 15.5312C340.892 17.5559 341.621 19.0735 342.711 20.239C343.744 21.3438 345.078 22.1004 346.2 22.7116C346.326 22.7801 346.449 22.8466 346.569 22.9116L346.57 22.9123C347.604 23.4727 348.421 23.9157 349.039 24.4585C349.647 24.9921 349.943 25.5229 349.943 26.2864C349.943 27.0499 349.647 27.5807 349.039 28.1143C348.421 28.6571 347.604 29.1 346.57 29.6604L346.57 29.6604C346.45 29.7256 346.326 29.7924 346.2 29.8612C345.078 30.4724 343.744 31.229 342.711 32.3338C341.621 33.4993 340.892 35.0169 340.892 37.0415C340.892 37.87 341.564 38.5415 342.392 38.5415C343.221 38.5415 343.892 37.87 343.892 37.0415C343.892 35.8297 344.295 35.0319 344.902 34.3831C345.565 33.6736 346.495 33.1169 347.635 32.4958C347.754 32.4311 347.876 32.3652 348.001 32.2979L348.003 32.2966L348.007 32.2948L348.007 32.2946C348.987 31.7663 350.127 31.1514 351.019 30.3682C352.109 29.4111 352.943 28.112 352.943 26.2864C352.943 24.4607 352.109 23.1617 351.019 22.2045C350.127 21.4213 348.987 20.8064 348.007 20.2781L348.007 20.278C347.88 20.2096 347.756 20.1427 347.635 20.077C346.495 19.4559 345.565 18.8991 344.902 18.1896C344.295 17.5409 343.892 16.7431 343.892 15.5312C343.892 15.5146 343.892 15.498 343.891 15.4815C343.892 15.4649 343.892 15.4483 343.892 15.4317C343.892 14.2198 344.295 13.422 344.902 12.7733C345.565 12.0638 346.495 11.507 347.635 10.8859C347.756 10.8202 347.88 10.7532 348.007 10.6848C348.987 10.1565 350.127 9.54157 351.019 8.75836C352.108 7.8021 352.942 6.50449 352.943 4.68139M352.943 4.67653C352.943 2.85087 352.109 1.5518 351.019 0.594686C350.127 -0.188526 348.987 -0.803408 348.007 -1.33172L348.007 -1.33172L348.007 -1.33174C347.88 -1.40018 347.756 -1.46716 347.635 -1.53287C346.495 -2.154 345.565 -2.71072 344.902 -3.42022C344.295 -4.069 343.892 -4.86678 343.892 -6.07861" fill="white" fill-opacity="0.25"/>
<path d="M342.522 141.544L332.416 124.124L322.437 141.544L312.458 158.836H332.416H352.501L342.522 141.544Z" stroke="#00B3FE" stroke-opacity="0.4" stroke-miterlimit="10"/>
<path d="M66.4819 43L70.0001 30L57.043 33.4437L44.0001 36.9735L53.5248 46.4437L63.0496 56L66.4819 43Z" stroke="#00B3FE" stroke-opacity="0.6" stroke-miterlimit="10"/>
<path d="M151.158 141.635C151.158 150.089 144.377 156.877 135.934 156.877C127.49 156.877 120.71 150.089 120.71 141.635C120.71 133.181 127.49 126.392 135.934 126.392C144.377 126.392 151.158 133.309 151.158 141.635Z" stroke="#00B3FE" stroke-opacity="0.5" stroke-miterlimit="10"/>
<path d="M428.22 117.281C420.908 121.503 411.642 119.014 407.479 111.804C403.316 104.594 405.793 95.3242 413.106 91.1024" stroke="#00B3FE" stroke-opacity="0.5" stroke-miterlimit="10"/>
<path d="M368.352 36.245C368.352 41.4234 359.301 40.5271 359.301 47.0001" stroke="#00B3FE" stroke-opacity="0.5" stroke-miterlimit="10"/>
<path d="M368.352 14.635C368.352 19.8134 359.301 18.9172 359.301 25.3902" stroke="#00B3FE" stroke-opacity="0.5" stroke-miterlimit="10"/>
<path d="M368.352 36.2449C368.352 31.0665 359.301 31.9628 359.301 25.4897" stroke="#00B3FE" stroke-opacity="0.5" stroke-miterlimit="10"/>
<path d="M368.352 14.635C368.352 9.45662 359.301 10.3529 359.301 3.87988" stroke="#00B3FE" stroke-opacity="0.5" stroke-miterlimit="10"/>
<path d="M37.9169 102.532C35.1024 104.325 31.3924 103.428 29.7292 100.61C27.9382 97.7924 28.8337 94.0778 31.6482 92.4127C34.4627 90.6194 38.1727 91.5161 39.8358 94.334C41.6269 97.152 40.7314 100.867 37.9169 102.532Z" stroke="white" stroke-opacity="0.25" stroke-width="3" stroke-miterlimit="10" stroke-linecap="round" stroke-linejoin="round"/>
</g>
</g>
<defs>
<clipPath id="clip0">
<rect width="414" height="140" fill="white"/>
</clipPath>
<clipPath id="clip1">
<rect width="540" height="254" fill="white" transform="translate(-63 12)"/>
</clipPath>
</defs>
</svg>
